# xmcd
#
# Track frame offsets: 
#        150
#        15324
#        34575
#
# Disc length: 668 seconds
#
# Revision: 0
# Processed by: cddbd v1.5.1PL2 Copyright (c) Steve Scherf et al.
# Submitted via: ExactAudioCopy v0.95b1
#
DISCID=13029a03
DTITLE=Freemaker - Freemaker
DYEAR=2006
DGENRE=Alternative
TTITLE0=Leaves
TTITLE1=Cold Ashes
TTITLE2=The Wire
EXTD=
EXTT0=
EXTT1=
EXTT2=
PLAYORDER=
